<svg width="28" height="27" viewBox="0 0 28 27" fill="none" xmlns="http://www.w3.org/2000/svg">
<path d="M10.9978 4.77083C10.0622 4.82316 10.0722 3.47857 10.7757 2.799C11.4792 2.11942 12.4911 2.35651 12.7241 2.46502C12.9571 2.57354 14.6252 2.99837 14.2607 5.1616C13.6815 8.83573 8.03413 10.4769 6.31006 18.358" stroke="white" stroke-width="2.35233" stroke-linecap="round" stroke-linejoin="round"/>
<path fill-rule="evenodd" clip-rule="evenodd" d="M11.1451 4.13437C11.0227 4.26676 10.8601 4.2883 10.928 4.03247C11.1713 3.33499 11.5529 3.05626 11.8985 2.9622C12.6454 2.81253 13.9755 3.29173 13.7516 5.07232C13.5736 6.48727 11.3024 8.08678 9.56391 10.0601C8.20617 11.6012 6.67163 14.4341 5.55541 17.1577L4.70093 16.6958C5.99193 14.294 7.22118 11.6658 9.33808 9.32505C10.5614 7.88765 12.9943 6.23826 13.153 5.03435C13.2544 4.26461 13.0084 3.65326 12.4387 3.47233C11.9699 3.32349 11.5555 3.66141 11.1451 4.13437Z" fill="white"/>
<path fill-rule="evenodd" clip-rule="evenodd" d="M11.6235 4.57085C11.4615 4.63719 11.4798 4.57822 11.4955 4.45052C11.5111 4.32281 11.6909 4.06649 11.9572 4.04692C12.3752 4.03684 12.5317 4.16755 12.6382 4.61958C12.8332 5.63155 11.312 6.60299 10.352 7.58768C7.60782 9.94941 6.09889 12.9367 4.03569 16.4976L3.33643 16.3127C5.07529 13.1562 6.95564 10.0705 8.39672 8.7055C9.70102 7.52237 11.9653 5.43541 12.0462 5.04031C12.1016 4.89568 12.2099 4.77586 12.0835 4.54587C11.9655 4.31729 11.7855 4.50451 11.6235 4.57085Z" fill="white"/>
<path fill-rule="evenodd" clip-rule="evenodd" d="M2.01392 16.062C5.4361 8.98592 10.6353 5.36355 11.1213 4.81304C11.1799 4.74664 11.6229 4.7276 11.3474 5.08662C10.4963 6.1958 6.45382 8.74449 2.68916 16.1876" fill="white"/>
<path d="M6.2142 18.5018C5.99616 16.6821 3.16058 16.4267 2 16.1681" stroke="white" stroke-width="2.35233" stroke-linecap="round" stroke-linejoin="round"/>
<path d="M23.596 9.14279C24.7707 9.25411 25.747 8.72416 25.8522 7.85962C25.9573 6.99538 25.0734 6.22524 23.9003 6.066C22.727 5.90674 21.4481 6.34937 20.553 7.5695C20.0471 8.25901 19.046 10.5974 18.701 12.4632C18.3754 13.6986 17.6551 18.1988 15.3473 23.365" stroke="white" stroke-width="2.35233" stroke-linecap="round" stroke-linejoin="round"/>
<path fill-rule="evenodd" clip-rule="evenodd" d="M24.8261 8.6546C25.1785 8.38565 25.3421 7.76281 25.079 7.41592C24.6936 6.90778 24.0347 6.75885 23.1886 6.82969C22.3171 6.90266 21.5934 7.42055 20.9548 8.48115C20.1428 9.82977 18.2064 17.7314 16.7773 22.465L17.9907 21.9443C19.0235 17.4246 20.7515 10.0024 21.4973 8.65065C21.9289 7.8684 22.6334 7.35379 23.5293 7.31334C23.9627 7.33722 24.3796 7.43922 24.6796 7.73406C24.982 8.03133 24.6272 8.60382 24.6272 8.60382C24.6556 8.66063 24.6938 8.71322 24.8261 8.6546Z" fill="white"/>
<path fill-rule="evenodd" clip-rule="evenodd" d="M24.1682 8.56709C24.221 8.37496 24.1621 8.25007 24.0877 8.12813C23.9839 7.95819 23.7416 7.83761 23.4528 7.82667C23.068 7.81211 22.6924 7.91655 22.2287 8.67469C21.4651 9.92289 19.9457 17.3466 18.7959 21.7073L19.9272 21.5927C20.8411 17.3642 21.9434 10.3465 22.669 8.92801C22.8775 8.52024 23.1074 8.24063 23.4337 8.21379C23.7602 8.18694 23.8929 8.45253 23.9839 8.59131C24.0123 8.64819 24.1479 8.63582 24.1682 8.56709Z" fill="white"/>
<path fill-rule="evenodd" clip-rule="evenodd" d="M20.8083 21.5393C21.6187 17.3492 22.7498 9.92207 23.4545 9.08903C23.5865 9.04271 23.7232 9.12609 23.6862 9.26593C22.9759 12.9849 22.4723 17.3108 21.9304 21.4276L20.8083 21.5393Z" fill="white"/>
<path d="M14.5416 24.9106C15.8055 21.8763 18.7897 21.5949 21.8641 21.4579" stroke="white" stroke-width="2.35233" stroke-linecap="round" stroke-linejoin="round"/>
<path fill-rule="evenodd" clip-rule="evenodd" d="M6.29565 18.6487C7.29203 12.2537 12.5962 8.51652 13.983 7.21485C15.3901 5.89409 18.0798 4.35887 17.6409 2.41712C19.9349 -0.228333 22.5522 1.03266 21.5607 4.52224C19.6294 5.66669 19.3938 8.30433 19.0898 9.67131C18.7853 11.0401 17.9638 18.0804 14.4532 25L14.4736 24.9855C13.7644 24.5492 11.8706 23.4839 12.0371 22.1131L12.0336 20.5012L10.8247 20.4538C10.9043 18.1525 7.24051 18.4812 6.29565 18.6487Z" stroke="white" stroke-width="0.470465"/>
<path d="M17.6588 2.41956C19.1151 2.99979 20.4157 3.69069 21.5454 4.50303" stroke="white" stroke-width="0.470465"/>
</svg>
