<svg width="15" height="16" viewBox="0 0 15 16" fill="none" xmlns="http://www.w3.org/2000/svg">
<g clip-path="url(#clip0)">
<path d="M7.5 0.734375C3.48633 0.734375 0.234375 3.98633 0.234375 8C0.234375 12.0137 3.48633 15.2656 7.5 15.2656C11.5137 15.2656 14.7656 12.0137 14.7656 8C14.7656 3.98633 11.5137 0.734375 7.5 0.734375ZM7.5 13.8594C4.2627 13.8594 1.64062 11.2373 1.64062 8C1.64062 4.7627 4.2627 2.14062 7.5 2.14062C10.7373 2.14062 13.3594 4.7627 13.3594 8C13.3594 11.2373 10.7373 13.8594 7.5 13.8594ZM9.31055 10.8008L6.82324 8.99316C6.73242 8.92578 6.67969 8.82031 6.67969 8.70898V3.89844C6.67969 3.70508 6.83789 3.54688 7.03125 3.54688H7.96875C8.16211 3.54688 8.32031 3.70508 8.32031 3.89844V8.04981L10.2773 9.47363C10.4355 9.58789 10.4678 9.80762 10.3535 9.96582L9.80273 10.7246C9.68848 10.8799 9.46875 10.915 9.31055 10.8008Z" fill="white"/>
</g>
<defs>
<clipPath id="clip0">
<rect width="15" height="15" fill="white" transform="translate(0 0.5)"/>
</clipPath>
</defs>
</svg>
