<svg width="22" height="24" viewBox="0 0 22 24" fill="none" xmlns="http://www.w3.org/2000/svg">
<path d="M15.7143 21V22.875C15.7143 23.4963 15.1866 24 14.5357 24H1.17857C0.527656 24 0 23.4963 0 22.875V5.625C0 5.00367 0.527656 4.5 1.17857 4.5H4.71429V18.375C4.71429 19.8225 5.94791 21 7.46429 21H15.7143ZM15.7143 4.875V0H7.46429C6.81337 0 6.28571 0.503672 6.28571 1.125V18.375C6.28571 18.9963 6.81337 19.5 7.46429 19.5H20.8214C21.4723 19.5 22 18.9963 22 18.375V6H16.8929C16.2446 6 15.7143 5.49375 15.7143 4.875ZM21.6548 3.42052L18.4166 0.329484C18.1956 0.11852 17.8958 1.55998e-06 17.5833 0L17.2857 0V4.5H22V4.21598C22 3.91763 21.8758 3.63149 21.6548 3.42052V3.42052Z" fill="white"/>
</svg>

