<svg width="12" height="12" viewBox="0 0 12 12" fill="none" xmlns="http://www.w3.org/2000/svg">
<path d="M5.41734 2.61539C5.89852 1.79487 7.10148 1.79487 7.58266 2.61538L10.8306 8.15385C11.3118 8.97436 10.7104 10 9.74798 10H3.25201C2.28965 10 1.68817 8.97436 2.16935 8.15385L5.41734 2.61539Z" fill="black"/>
<path d="M6.88696 6.70007H6.07826V4H6.88696V6.70007ZM6 8.48466C6 8.33197 6.04058 8.20473 6.12174 8.10293C6.2058 8.00114 6.33043 7.95024 6.49565 7.95024C6.66087 7.95024 6.78551 8.00114 6.86957 8.10293C6.95652 8.20473 7 8.33197 7 8.48466C7 8.63099 6.95652 8.75347 6.86957 8.85208C6.78551 8.95069 6.66087 9 6.49565 9C6.33043 9 6.2058 8.95069 6.12174 8.85208C6.04058 8.75347 6 8.63099 6 8.48466Z" fill="#CA3737"/>
</svg>
