<svg width="24" height="25" viewBox="0 0 24 25" fill="none" xmlns="http://www.w3.org/2000/svg">
<path d="M23.9997 9.5073C23.9997 9.50559 23.9998 9.50387 23.9998 9.50215C23.998 9.25025 23.9055 9.01202 23.7469 8.85073C23.5752 8.6761 19.4825 4.57373 14.3758 4.57373C9.84993 4.57373 6.16879 7.85811 5.26471 8.73713H0.708972C0.32066 8.73713 0.00584746 9.12127 0.00584746 9.5951C0.00584746 10.0689 0.32066 10.4531 0.708972 10.4531H5.26564C6.16902 11.3273 9.85025 14.5967 14.3758 14.5967C15.8404 14.5967 17.2212 14.2472 18.4505 13.7446C16.791 15.4243 15.446 16.6253 15.0139 16.9659C14.8778 17.0733 14.7223 17.1977 14.5499 17.3357C12.7414 18.7831 8.97833 21.7947 6.17455 22.1144C5.29382 22.2149 4.48457 22.1225 3.76954 21.8401C2.98311 21.5296 2.34711 20.9667 1.93044 20.2125C1.43118 19.309 1.28202 18.2777 1.52122 17.383C1.80078 16.3373 2.39685 15.8337 2.86138 15.711C3.40213 15.5683 4.01943 15.8071 4.5126 16.35C4.57532 16.4191 4.63654 16.4935 4.69447 16.5712C4.95585 16.9216 5.40055 16.9471 5.68771 16.6282C5.97491 16.3093 5.99586 15.7667 5.73449 15.4162C5.64561 15.297 5.55144 15.1825 5.45455 15.0759C4.62636 14.1641 3.54571 13.7745 2.56396 14.0338C1.48443 14.3189 0.572613 15.3983 0.184254 16.8508C-0.190231 18.2517 0.0211756 19.8267 0.764426 21.1718C1.35866 22.2472 2.24811 23.0428 3.3366 23.4726C4.0055 23.7368 4.73038 23.8695 5.49993 23.8695C5.76332 23.8695 6.03196 23.854 6.30538 23.8229C9.45721 23.4635 13.4178 20.2939 15.3211 18.7706C15.4906 18.6349 15.6434 18.5126 15.7772 18.4071C16.3785 17.9329 17.8317 16.6121 19.5343 14.8738C17.9658 19.1649 17.7927 23.0656 17.7836 23.303C17.7655 23.7763 18.0653 24.178 18.4532 24.2C18.4643 24.2007 18.4754 24.201 18.4865 24.201C18.8598 24.201 19.1707 23.8427 19.1883 23.383C19.1993 23.0944 19.4727 16.9408 22.5936 11.8353L22.5936 13.1925C22.5936 13.6663 22.9084 14.0504 23.2967 14.0504H23.2967C23.685 14.0504 23.9998 13.6664 23.9998 13.1925L24 9.50982C23.9999 9.50902 23.9997 9.50822 23.9997 9.5073V9.5073ZM14.4215 6.31244C14.9553 6.31244 15.3895 6.85628 15.3895 7.52476C15.3895 8.19323 14.9552 8.73707 14.4215 8.73707C13.8877 8.73707 13.4535 8.19323 13.4535 7.52476C13.4535 6.85634 13.8877 6.31244 14.4215 6.31244ZM6.67939 9.59344C7.69405 8.72014 9.71835 7.20759 12.1755 6.57796C12.0929 6.87521 12.0472 7.19341 12.0472 7.52481C12.0472 9.13946 13.1123 10.4531 14.4215 10.4531C15.7307 10.4531 16.7957 9.13946 16.7957 7.52481C16.7957 7.19999 16.7519 6.8878 16.6723 6.59569C19.0954 7.22429 21.1036 8.67513 22.1233 9.52263C20.801 10.6644 17.7935 12.8807 14.3758 12.8807C10.9582 12.8808 7.98458 10.7113 6.67939 9.59344Z" fill="white"/>
<path d="M0.703125 6.2179H5.45475C5.45489 6.2179 5.45503 6.21796 5.45517 6.21796C5.60845 6.21796 5.76277 6.1571 5.89209 6.03172C7.47708 4.49503 10.6869 1.91705 14.3757 1.91705C18.0645 1.91705 21.2742 4.49492 22.8592 6.03155C23.163 6.32629 23.6055 6.26452 23.847 5.89353C24.0886 5.52254 24.038 4.98282 23.7339 4.68808C22.0056 3.01228 18.4915 0.20105 14.3758 0.20105C10.4089 0.20105 7.00111 2.81255 5.21213 4.50195H0.703125C0.314812 4.50195 0 4.8861 0 5.35993C0 5.83376 0.314812 6.2179 0.703125 6.2179V6.2179Z" fill="white"/>
</svg>
