<svg width="26" height="26" viewBox="0 0 26 26" fill="none" xmlns="http://www.w3.org/2000/svg">
<path d="M13.8536 1.04418L13.8536 1.04411C13.6965 0.731844 13.3802 0.5 13 0.5C12.6192 0.5 12.3034 0.732068 12.1464 1.04411L12.1464 1.04418L0.614819 23.9775L0.614711 23.9777C0.460963 24.2839 0.461663 24.6557 0.617441 24.9614C0.775335 25.2713 1.09116 25.5 1.46845 25.5H10.9187C11.5123 25.5 11.8874 24.9746 11.8874 24.4667C11.8874 23.9596 11.5126 23.4333 10.9187 23.4333H3.08769L13 3.72046L22.9124 23.4333H15.1376C14.5439 23.4333 14.1692 23.9599 14.1692 24.4667C14.1692 24.9743 14.5442 25.5 15.1376 25.5H15.1386H24.5316C24.9089 25.5 25.2247 25.2712 25.3826 24.9614C25.5383 24.6557 25.539 24.2839 25.3853 23.9777L24.9385 24.2021L25.3852 23.9775L13.8536 1.04418Z" fill="#FFFBFB" stroke="#050505"/>
<path d="M13.0286 25.5C13.6223 25.5 13.9973 24.9748 13.9973 24.4667C13.9973 23.9586 13.6223 23.4333 13.0286 23.4333C12.4349 23.4333 12.0598 23.9586 12.0598 24.4667C12.0598 24.9748 12.4349 25.5 13.0286 25.5Z" fill="#FFFBFB" stroke="#050505"/>
<path d="M13.6359 19.0035C13.6966 19.1517 13.7716 19.2956 13.8599 19.4349V20.1468C13.8599 20.655 14.235 21.1802 14.8287 21.1802C15.4224 21.1802 15.7974 20.655 15.7974 20.1468V19.0801C15.7974 18.8316 15.7134 18.5824 15.5478 18.3869L13.6359 19.0035ZM13.6359 19.0035L11.6664 21.3001H19.6798L17.4182 16.7933C16.914 17.1504 16.2333 17.5628 15.4316 17.8738C15.4191 17.9014 15.408 17.9308 15.3997 17.9612C15.3857 18.0128 15.3807 18.0548 15.3897 18.1035C15.3987 18.1521 15.4291 18.2467 15.5477 18.3868L13.6359 19.0035ZM9.63047 18.492L9.63049 18.492C10.1634 18.6858 10.3822 19.2786 10.2449 19.7675L9.63047 18.492ZM9.63047 18.492C8.89022 18.2229 8.10535 18.3949 7.52335 18.9045M9.63047 18.492L7.52335 18.9045M7.52335 18.9045L8.58283 16.7933C9.30345 17.3037 10.394 17.9337 11.6884 18.2109L10.1342 20.0233C10.182 19.9437 10.2196 19.8576 10.2449 19.7676L7.52335 18.9045ZM22.1516 21.8448L22.1516 21.8448L13.8545 5.31143L13.8545 5.31141C13.6973 4.99827 13.3814 4.76685 13.0005 4.76685C12.6196 4.76685 12.3037 4.99829 12.1465 5.31149C12.1465 5.3115 12.1465 5.31151 12.1465 5.31152L3.8494 21.8448L3.84939 21.8448C3.69527 22.152 3.69642 22.5223 3.85256 22.8285L3.85264 22.8286C4.0109 23.1387 4.32524 23.3668 4.7034 23.3668H21.2976H21.2978C21.6758 23.3667 21.9901 23.1386 22.1484 22.8286L22.1485 22.8284C22.3046 22.5223 22.3057 22.1519 22.1516 21.8448ZM9.00316 20.4478C9.3433 20.5717 9.66862 20.4859 9.90603 20.2893L9.12499 21.2001C9.05777 21.275 8.98692 21.3001 8.92632 21.3001H8.92069C8.85924 21.3001 8.78717 21.2743 8.71903 21.1968C8.64949 21.1177 8.60315 21.0029 8.60315 20.867C8.60315 20.7311 8.64946 20.6163 8.71896 20.5372C8.81116 20.4323 8.91618 20.4163 9.00316 20.4478ZM6.6656 20.8669C6.6656 21.0101 6.67648 21.1559 6.69856 21.3H6.32117L6.67967 20.5856C6.67032 20.6786 6.6656 20.7725 6.6656 20.8669ZM15.7975 15.2401C15.7975 15.1782 15.7958 15.1166 15.7926 15.0555C15.8973 15.1175 15.9971 15.1798 16.0914 15.2413C15.9971 15.3029 15.8973 15.3653 15.7925 15.4274C15.7958 15.3654 15.7975 15.303 15.7975 15.2401ZM11.9346 10.1144L13.0005 7.99055L14.0664 10.1144C13.7098 10.0519 13.3541 10.0201 13.0005 10.0201C12.6469 10.0201 12.2912 10.0519 11.9346 10.1144ZM13.0005 12.0867C13.3507 12.0867 13.7124 12.132 14.0838 12.2243C13.7357 12.1623 13.3735 12.1268 13.0005 12.1268C12.6275 12.1268 12.2653 12.1623 11.9172 12.2242C12.2886 12.132 12.6503 12.0867 13.0005 12.0867ZM13.8599 15.2402C13.8599 15.8795 13.4153 16.2868 13.0005 16.2868C12.5857 16.2868 12.1411 15.8795 12.1411 15.2402C12.1411 14.6009 12.5857 14.1935 13.0005 14.1935C13.4153 14.1935 13.8599 14.6009 13.8599 15.2402ZM10.2085 15.4248C10.1037 15.3628 10.0039 15.3005 9.90961 15.239C10.004 15.1774 10.1038 15.115 10.2086 15.0529C10.2053 15.1149 10.2036 15.1773 10.2036 15.2402C10.2036 15.3021 10.2052 15.3637 10.2085 15.4248Z" fill="#FFFBFB" stroke="#050505"/>
</svg>
