<svg width="15" height="15" viewBox="0 0 15 15" fill="none" xmlns="http://www.w3.org/2000/svg">
<path d="M4.75 2.75037H2.5C2.10218 2.75037 1.72064 2.90841 1.43934 3.18971C1.15804 3.47102 1 3.85255 1 4.25037V12.5004C1 12.8982 1.15804 13.2797 1.43934 13.561C1.72064 13.8423 2.10218 14.0004 2.5 14.0004H10.75C11.1478 14.0004 11.5294 13.8423 11.8107 13.561C12.092 13.2797 12.25 12.8982 12.25 12.5004V10.2504M9.25 3.50037L10.9697 1.78062C11.1104 1.64002 11.3011 1.56104 11.5 1.56104C11.6989 1.56104 11.8896 1.64002 12.0303 1.78062L13.2197 2.97013C13.3604 3.11077 13.4393 3.3015 13.4393 3.50037C13.4393 3.69925 13.3604 3.88998 13.2197 4.03062L11.5 5.75037L9.25 3.50037ZM9.25 3.50037L4.96975 7.78062C4.82909 7.92124 4.75004 8.11198 4.75 8.31087V9.50038C4.75 9.69929 4.82902 9.89005 4.96967 10.0307C5.11032 10.1714 5.30109 10.2504 5.5 10.2504H6.6895C6.8884 10.2503 7.07913 10.1713 7.21975 10.0306L11.5 5.75037L9.25 3.50037ZM9.25 3.50037L11.5 5.75037L9.25 3.50037Z" stroke="white" stroke-width="1.5" stroke-linecap="round" stroke-linejoin="round"/>
</svg>
