<svg width="15" height="16" viewBox="0 0 15 16" fill="none" xmlns="http://www.w3.org/2000/svg">
<path d="M9.92934 3.36046L7.71996 5.56983C7.59794 5.69185 7.59794 5.88969 7.71996 6.01171L9.48746 7.77921C9.60948 7.90123 9.80732 7.90123 9.92934 7.77921L12.1387 5.56983C12.2607 5.44781 12.2607 5.24998 12.1387 5.12796L10.3712 3.36046C10.2492 3.23844 10.0514 3.23844 9.92934 3.36046Z" fill="white"/>
<path d="M9.24389 3.16323C7.08561 1.28244 5.40307 1.06894 5.32548 1.06026C5.26112 1.05311 5.19613 1.06614 5.1395 1.09754C5.08286 1.12894 5.03738 1.17715 5.00934 1.23552C4.9813 1.29388 4.97208 1.35952 4.98296 1.42336C4.99384 1.48719 5.02428 1.54607 5.07007 1.59185L7.9427 4.46448L9.24389 3.16323Z" fill="white"/>
<path d="M14.4399 10.1748C14.4312 10.0972 14.2177 8.41487 12.3374 6.25684L11.0361 7.55805L13.9083 10.4302C13.9541 10.476 14.013 10.5065 14.0768 10.5174C14.1406 10.5282 14.2063 10.519 14.2647 10.491C14.323 10.4629 14.3712 10.4175 14.4026 10.3608C14.434 10.3042 14.4471 10.2392 14.4399 10.1748Z" fill="white"/>
<path d="M7.50034 6.67432L0.650121 13.5244C0.591517 13.583 0.558594 13.6625 0.558594 13.7454C0.558594 13.8283 0.591517 13.9077 0.650121 13.9663L1.53412 14.8501C1.59273 14.9087 1.67221 14.9417 1.75509 14.9417C1.83797 14.9417 1.91745 14.9087 1.97606 14.8501L8.82615 8.00013L7.50034 6.67432Z" fill="white"/>
</svg>
