<svg width="12" height="12" viewBox="0 0 12 12" fill="none" xmlns="http://www.w3.org/2000/svg">
<circle cx="6" cy="6" r="5.5" fill="white" stroke="white"/>
<path d="M5.65474 6.93029C5.65474 6.75561 5.65854 6.60751 5.66614 6.48599C5.67626 6.36448 5.69778 6.25562 5.73069 6.15942C5.7636 6.06069 5.81297 5.97082 5.87879 5.88981C5.94461 5.80626 6.03701 5.71766 6.156 5.62399C6.24207 5.54551 6.32814 5.46323 6.41422 5.37716C6.50029 5.28855 6.57751 5.19868 6.64586 5.10755C6.71674 5.01388 6.7737 4.91894 6.81674 4.82274C6.85978 4.72654 6.8813 4.63034 6.8813 4.53414C6.8813 4.30377 6.81927 4.13542 6.69522 4.02909C6.57118 3.92276 6.39017 3.8696 6.1522 3.8696C6.06106 3.8696 5.97246 3.88226 5.88638 3.90757C5.80031 3.93036 5.7231 3.96833 5.65474 4.02149C5.58892 4.07466 5.53449 4.14301 5.49146 4.22655C5.45095 4.3101 5.42943 4.41009 5.4269 4.52655H4.36743C4.36996 4.26832 4.41806 4.04428 4.51173 3.85441C4.6054 3.66201 4.73198 3.50252 4.89147 3.37594C5.05096 3.24936 5.2383 3.15569 5.45348 3.09493C5.66867 3.03164 5.90157 3 6.1522 3C6.43321 3 6.6851 3.03164 6.90788 3.09493C7.13066 3.15822 7.31799 3.25316 7.46989 3.37974C7.62432 3.50379 7.74204 3.65821 7.82305 3.84302C7.90406 4.02782 7.94456 4.24174 7.94456 4.48478C7.94456 4.66452 7.91418 4.82907 7.85343 4.97843C7.79267 5.12527 7.71419 5.26324 7.61799 5.39235C7.52179 5.51893 7.41166 5.64044 7.28762 5.7569C7.1661 5.87082 7.04332 5.98221 6.91927 6.09107C6.84332 6.16701 6.78383 6.2341 6.74079 6.29233C6.69776 6.35055 6.66611 6.41005 6.64586 6.4708C6.62814 6.53156 6.61675 6.59865 6.61168 6.67207C6.60662 6.74295 6.60409 6.82902 6.60409 6.93029H5.65474ZM5.49905 8.08089C5.49905 7.99735 5.51297 7.92014 5.54082 7.84925C5.56867 7.77584 5.60917 7.71255 5.66234 7.65938C5.7155 7.60622 5.78006 7.56571 5.856 7.53787C5.93195 7.50749 6.01803 7.4923 6.11423 7.4923C6.20789 7.4923 6.2927 7.50749 6.36865 7.53787C6.44713 7.56571 6.51295 7.60622 6.56611 7.65938C6.61928 7.71255 6.65978 7.77584 6.68763 7.84925C6.71801 7.92014 6.7332 7.99735 6.7332 8.08089C6.7332 8.1619 6.71801 8.23785 6.68763 8.30874C6.65978 8.37962 6.61928 8.44038 6.56611 8.49101C6.51295 8.54164 6.44713 8.58088 6.36865 8.60873C6.2927 8.63911 6.20789 8.6543 6.11423 8.6543C6.01803 8.6543 5.93195 8.63911 5.856 8.60873C5.78006 8.58088 5.7155 8.54164 5.66234 8.49101C5.60917 8.44038 5.56867 8.37962 5.54082 8.30874C5.51297 8.23785 5.49905 8.1619 5.49905 8.08089Z" fill="black" stroke="black" stroke-width="0.25"/>
</svg>
