<svg width="24" height="24" viewBox="0 0 24 24" fill="none" xmlns="http://www.w3.org/2000/svg">
<path d="M16.7024 10.744C16.7562 10.7852 16.8243 10.8033 16.8915 10.7943C16.9587 10.7854 17.0196 10.7501 17.0607 10.6963L20.6034 6.06375C20.6243 6.03712 20.6397 6.00662 20.6487 5.97401C20.6577 5.9414 20.6601 5.90733 20.6558 5.87377C20.6515 5.84021 20.6407 5.80784 20.6238 5.77852C20.6069 5.7492 20.5844 5.72352 20.5575 5.70297C20.5306 5.68242 20.5 5.66741 20.4672 5.6588C20.4345 5.6502 20.4004 5.64817 20.3669 5.65284C20.3334 5.65751 20.3012 5.66878 20.272 5.686C20.2429 5.70322 20.2175 5.72605 20.1973 5.75316L16.6546 10.3857C16.6134 10.4395 16.5953 10.5075 16.6043 10.5747C16.6133 10.6419 16.6485 10.7028 16.7024 10.744Z" fill="white"/>
<path d="M14.928 9.13323C14.9571 9.15005 14.9892 9.16097 15.0225 9.16537C15.0558 9.16978 15.0896 9.16757 15.122 9.15889C15.1545 9.15021 15.1849 9.13521 15.2115 9.11477C15.2382 9.09432 15.2605 9.06882 15.2773 9.03973L16.7401 6.5058C16.7572 6.47672 16.7683 6.44455 16.7728 6.41114C16.7774 6.37774 16.7753 6.34376 16.7667 6.31116C16.7581 6.27856 16.7431 6.24799 16.7226 6.22121C16.7022 6.19443 16.6766 6.17196 16.6474 6.1551C16.6182 6.13824 16.5859 6.12733 16.5525 6.12298C16.5191 6.11864 16.4851 6.12095 16.4526 6.12978C16.42 6.13861 16.3896 6.1538 16.3629 6.17446C16.3363 6.19511 16.314 6.22084 16.2973 6.25015L14.8342 8.78407C14.8004 8.84281 14.7912 8.91259 14.8088 8.97807C14.8264 9.04355 14.8693 9.09936 14.928 9.13323Z" fill="white"/>
<path d="M20.3857 11.4917C20.3552 11.4312 20.3021 11.3852 20.2378 11.3638C20.1736 11.3423 20.1034 11.3472 20.0428 11.3773L18.2897 12.2539C18.2589 12.2684 18.2312 12.2889 18.2084 12.3142C18.1856 12.3396 18.1681 12.3692 18.1569 12.4014C18.1458 12.4336 18.1412 12.4677 18.1434 12.5017C18.1456 12.5358 18.1545 12.569 18.1698 12.5995C18.185 12.63 18.2062 12.6571 18.2321 12.6793C18.258 12.7015 18.288 12.7183 18.3205 12.7287C18.3529 12.7391 18.3872 12.7429 18.4211 12.7399C18.4551 12.7369 18.4881 12.7271 18.5182 12.7111L20.2713 11.8346C20.3013 11.8196 20.3281 11.7988 20.3501 11.7735C20.3721 11.7481 20.3889 11.7187 20.3995 11.6868C20.4101 11.655 20.4144 11.6214 20.412 11.5879C20.4096 11.5544 20.4007 11.5217 20.3857 11.4917Z" fill="white"/>
<path d="M20.3662 14.4937L19.1001 14.6642C19.0359 14.6729 18.9775 14.7057 18.9365 14.7558C18.8956 14.806 18.8752 14.8698 18.8795 14.9344C18.8838 14.999 18.9124 15.0596 18.9596 15.1039C19.0068 15.1482 19.0691 15.173 19.1338 15.1731C19.1453 15.1732 19.1568 15.1724 19.1682 15.1708L20.4343 15.0003C20.4681 14.9965 20.5009 14.986 20.5306 14.9694C20.5603 14.9528 20.5864 14.9304 20.6073 14.9036C20.6283 14.8767 20.6437 14.846 20.6526 14.8131C20.6615 14.7803 20.6637 14.7459 20.6592 14.7122C20.6546 14.6785 20.6434 14.646 20.6262 14.6166C20.6089 14.5873 20.586 14.5617 20.5587 14.5413C20.5314 14.521 20.5003 14.5063 20.4673 14.4981C20.4342 14.4899 20.3999 14.4884 20.3662 14.4937Z" fill="white"/>
<path d="M6.93925 10.6962C6.98046 10.7501 7.04137 10.7854 7.10859 10.7943C7.17581 10.8032 7.24382 10.7851 7.29768 10.7439C7.35154 10.7027 7.38682 10.6418 7.39576 10.5746C7.40471 10.5074 7.38658 10.4393 7.34538 10.3855L3.80271 5.75298C3.7612 5.70003 3.7005 5.66557 3.63376 5.65708C3.56702 5.64858 3.49962 5.66674 3.44618 5.70761C3.39274 5.74848 3.35756 5.80877 3.34827 5.8754C3.33899 5.94204 3.35634 6.00965 3.39658 6.06357L6.93925 10.6962Z" fill="white"/>
<path d="M10.4832 8.09652C10.4972 8.16286 10.537 8.22091 10.5939 8.25789C10.6507 8.29487 10.7199 8.30776 10.7863 8.29372C10.8526 8.27968 10.9106 8.23985 10.9476 8.18301C10.9846 8.12617 10.9975 8.05697 10.9834 7.99063L9.7771 2.2849C9.7624 2.21925 9.72242 2.16203 9.66581 2.12566C9.60921 2.0893 9.54055 2.07671 9.47473 2.09062C9.40891 2.10454 9.35122 2.14384 9.31418 2.20001C9.27715 2.25618 9.26374 2.32468 9.27688 2.39066L10.4832 8.09652Z" fill="white"/>
<path d="M13.803 8.09652C13.7889 8.16286 13.7491 8.22091 13.6923 8.25789C13.6354 8.29487 13.5662 8.30776 13.4999 8.29372C13.4335 8.27968 13.3755 8.23985 13.3385 8.18301C13.3015 8.12617 13.2886 8.05697 13.3027 7.99063L14.509 2.2849C14.5237 2.21925 14.5637 2.16203 14.6203 2.12566C14.6769 2.0893 14.7456 2.07671 14.8114 2.09062C14.8772 2.10454 14.9349 2.14384 14.9719 2.20001C15.009 2.25618 15.0224 2.32468 15.0093 2.39066L13.803 8.09652Z" fill="white"/>
<path d="M8.72288 9.03973C8.75678 9.09847 8.81263 9.14133 8.87813 9.15889C8.94364 9.17645 9.01344 9.16727 9.07218 9.13337C9.13092 9.09947 9.17378 9.04362 9.19134 8.97812C9.2089 8.91261 9.19972 8.84281 9.16582 8.78407L7.70288 6.25015C7.68621 6.22084 7.66392 6.19511 7.63727 6.17446C7.61062 6.1538 7.58016 6.13861 7.54762 6.12978C7.51508 6.12095 7.48111 6.11864 7.44768 6.12298C7.41425 6.12733 7.382 6.13824 7.3528 6.1551C7.3236 6.17196 7.29803 6.19443 7.27755 6.22121C7.25707 6.24799 7.24209 6.27856 7.23347 6.31116C7.22485 6.34376 7.22276 6.37774 7.22733 6.41114C7.2319 6.44455 7.24303 6.47672 7.26008 6.5058L8.72288 9.03973Z" fill="white"/>
<path d="M5.5964 12.7381C5.65399 12.7381 5.70988 12.7187 5.75504 12.6829C5.80019 12.6472 5.83196 12.5973 5.8452 12.5412C5.85843 12.4852 5.85236 12.4263 5.82797 12.3742C5.80358 12.322 5.76229 12.2796 5.71079 12.2538L3.95772 11.3773C3.92769 11.3623 3.89501 11.3534 3.86153 11.351C3.82805 11.3486 3.79443 11.3529 3.76259 11.3635C3.73075 11.3741 3.70132 11.3909 3.67597 11.4129C3.65062 11.4349 3.62985 11.4617 3.61484 11.4917C3.59984 11.5217 3.5909 11.5544 3.58853 11.5879C3.58616 11.6214 3.59041 11.655 3.60103 11.6868C3.61165 11.7186 3.62844 11.7481 3.65044 11.7734C3.67243 11.7988 3.69921 11.8196 3.72923 11.8346L5.48231 12.7111C5.51773 12.7288 5.55679 12.7381 5.5964 12.7381Z" fill="white"/>
<path d="M3.56589 15.0003L4.83204 15.1707C4.84342 15.1722 4.85489 15.173 4.86638 15.173C4.93112 15.1728 4.99339 15.1481 5.0406 15.1037C5.08781 15.0594 5.11645 14.9989 5.12074 14.9343C5.12502 14.8696 5.10463 14.8058 5.06368 14.7557C5.02273 14.7055 4.96428 14.6728 4.90012 14.664L3.63396 14.4937C3.60033 14.4884 3.56599 14.4899 3.53294 14.4981C3.4999 14.5063 3.46882 14.521 3.44153 14.5413C3.41425 14.5617 3.3913 14.5873 3.37404 14.6166C3.35678 14.646 3.34556 14.6785 3.34102 14.7122C3.33649 14.7459 3.33874 14.7803 3.34764 14.8131C3.35654 14.846 3.37192 14.8767 3.39286 14.9036C3.41381 14.9304 3.4399 14.9528 3.46961 14.9694C3.49933 14.986 3.53206 14.9965 3.56589 15.0003Z" fill="white"/>
<path d="M20.4507 17.6063C20.4582 17.607 20.4658 17.6073 20.4736 17.6073C20.5419 17.607 20.6074 17.5803 20.6566 17.5329C20.7058 17.4855 20.7348 17.421 20.7377 17.3528C20.7406 17.2845 20.7171 17.2178 20.672 17.1664C20.627 17.1151 20.5639 17.083 20.4959 17.0769L19.61 17.001C19.5752 16.998 19.5402 17.0019 19.507 17.0124C19.4737 17.0229 19.4428 17.0399 19.4161 17.0624C19.3895 17.0849 19.3674 17.1124 19.3514 17.1433C19.3353 17.1743 19.3255 17.2081 19.3225 17.2429C19.3195 17.2776 19.3234 17.3127 19.3339 17.3459C19.3445 17.3792 19.3615 17.41 19.3839 17.4367C19.4064 17.4634 19.4339 17.4854 19.4649 17.5015C19.4958 17.5175 19.5297 17.5274 19.5644 17.5303L20.4507 17.6063Z" fill="white"/>
<path d="M3.56618 17.6073C3.57378 17.6073 3.58137 17.6073 3.58911 17.6063L4.47504 17.5304C4.54524 17.5243 4.61017 17.4906 4.65553 17.4367C4.7009 17.3828 4.72299 17.3131 4.71695 17.2429C4.71091 17.1727 4.67723 17.1078 4.62332 17.0624C4.56941 17.017 4.49969 16.9949 4.42949 17.001L3.54356 17.0769C3.47552 17.083 3.41245 17.1151 3.36742 17.1664C3.32239 17.2178 3.29888 17.2845 3.30175 17.3528C3.30462 17.421 3.33366 17.4855 3.38284 17.5329C3.43203 17.5803 3.49757 17.607 3.56588 17.6073H3.56618Z" fill="white"/>
<path d="M16.5231 14.9542L13.9205 15.2795C14.666 13.3952 14.666 12.908 14.666 12.666C14.666 11.1959 13.4701 10 12 10C10.5299 10 9.33398 11.1959 9.33398 12.666C9.33398 12.91 9.33398 13.4036 10.099 15.3287L7.48352 14.955C7.25348 14.9222 7.04883 15.101 7.04883 15.332V17.6172C7.04883 17.849 7.25449 18.027 7.48352 17.9942L10.6525 17.5415L10.098 22.5775C10.0731 22.803 10.2501 23 10.4766 23H13.5234C13.7502 23 13.9269 22.8027 13.902 22.5775L13.3541 17.5989L16.5231 17.995C16.7503 18.0234 16.9512 17.8462 16.9512 17.6172V15.332C16.9512 15.1025 16.7496 14.9255 16.5231 14.9542ZM12.3527 15.0951C12.2237 15.4101 11.7765 15.4105 11.6473 15.0951C11.462 14.6417 10.8574 13.1258 10.8574 12.666C10.8574 12.0361 11.3701 11.5234 12 11.5234C12.6299 11.5234 13.1426 12.0361 13.1426 12.666C13.1426 13.1258 12.5378 14.6417 12.3527 15.0951Z" fill="white"/>
</svg>
