<svg width="14" height="25" viewBox="0 0 14 25" fill="none" xmlns="http://www.w3.org/2000/svg">
<path d="M11.4377 6.70923C10.8541 6.34224 10.5158 5.55699 10.5157 4.77268V4.01555C10.5156 1.8621 8.59083 0.193626 6.41474 0.547534C4.71674 0.82377 3.48434 2.38598 3.48434 4.26216V4.77263C3.48434 5.59684 3.12242 6.35706 2.56231 6.70928C1.4448 7.41212 0.818597 8.66519 0.928097 9.97938C0.929082 9.99101 0.930301 10.0026 0.931894 10.0142C1.00854 10.5875 2.55181 22.132 2.6239 22.6711C2.76382 23.7138 3.66261 24.5 4.71458 24.5H9.28552C10.3374 24.5 11.2362 23.7138 11.3762 22.6708C11.4493 22.1245 13.0376 10.2427 13.0682 10.0142C13.0697 10.0026 13.071 9.99101 13.072 9.97938C13.1815 8.66514 12.5553 7.41208 11.4377 6.70923ZM6.64054 1.93556C7.98952 1.71609 9.10936 2.75357 9.10936 4.01555V4.77272C9.10936 4.84561 9.11152 4.91808 9.11522 4.99013L5.1891 3.02709C5.49547 2.44898 6.01495 2.03732 6.64054 1.93556ZM2.48393 11.0113L2.32821 9.8464C2.26967 9.07263 2.63646 8.33655 3.28869 7.91481L6.85753 9.69926L2.48393 11.0113ZM9.28547 23.0937H4.71453C4.36386 23.0937 4.06428 22.8317 4.01769 22.4845L3.87552 21.4208L9.79327 22.8759C9.66423 23.0106 9.48296 23.0937 9.28547 23.0937ZM10.1131 21.5064L3.67531 19.9235L3.28587 17.0102L10.4777 18.7786L10.1131 21.5064ZM10.6652 17.3765L4.9265 15.9655L11.1014 14.113L10.6652 17.3765ZM11.3058 12.5835L3.02614 15.0674L2.6726 12.4228L8.69274 10.6168L11.3885 11.9647L11.3058 12.5835ZM11.6717 9.8464L11.5856 10.491L4.32139 6.85895C4.6851 6.2649 4.8906 5.5389 4.8906 4.77272V4.45017L9.66563 6.83772C9.92818 7.27337 10.2751 7.63947 10.6889 7.89972C11.3555 8.31888 11.731 9.06358 11.6717 9.8464Z" fill="white"/>
</svg>
