<svg width="24" height="24" viewBox="0 0 24 24" fill="none" xmlns="http://www.w3.org/2000/svg">
<path d="M23.5312 16.4062H22.7344V15C22.7344 14.7411 22.5245 14.5312 22.2656 14.5312H21.4688V7.59375H22.2656C22.5245 7.59375 22.7344 7.38389 22.7344 7.125V5.25C22.7344 4.99111 22.5245 4.78125 22.2656 4.78125H1.73438C1.47553 4.78125 1.26562 4.99111 1.26562 5.25V7.125C1.26562 7.38389 1.47553 7.59375 1.73438 7.59375H2.53125V14.5312H1.73438C1.47553 14.5312 1.26562 14.7411 1.26562 15V16.4062H0.46875C0.209906 16.4062 0 16.6161 0 16.875V18.75C0 19.0089 0.209906 19.2188 0.46875 19.2188H17.8906C18.1495 19.2188 18.3594 19.0089 18.3594 18.75C18.3594 18.4911 18.1495 18.2812 17.8906 18.2812H0.9375V17.3438H23.0625V18.2812H14.1094C13.8505 18.2812 13.6406 18.4911 13.6406 18.75C13.6406 19.0089 13.8505 19.2188 14.1094 19.2188H23.5312C23.7901 19.2188 24 19.0089 24 18.75V16.875C24 16.6161 23.7901 16.4062 23.5312 16.4062ZM2.20312 5.71875H21.7969V6.65625H2.20312V5.71875ZM3.46875 7.59375H20.5312V14.5312H3.46875V7.59375ZM2.20312 16.4062V15.4688H21.7969V16.4062H2.20312Z" fill="white"/>
<path d="M18.5625 8.71875H5.4375C5.17866 8.71875 4.96875 8.92861 4.96875 9.1875V12.9375C4.96875 13.1964 5.17866 13.4062 5.4375 13.4062H18.5625C18.8213 13.4062 19.0312 13.1964 19.0312 12.9375V9.1875C19.0312 8.92861 18.8213 8.71875 18.5625 8.71875ZM18.0938 12.4688H5.90625V9.65625H18.0938V12.4688Z" fill="white"/>
<path d="M12 18.2812C11.8767 18.2812 11.7558 18.3314 11.6686 18.4186C11.5814 18.5058 11.5312 18.6267 11.5312 18.75C11.5312 18.8733 11.5814 18.9942 11.6686 19.0814C11.7558 19.1686 11.8767 19.2188 12 19.2188C12.1233 19.2188 12.2442 19.1686 12.3314 19.0814C12.4185 18.9942 12.4688 18.8733 12.4688 18.75C12.4688 18.6267 12.4186 18.5058 12.3314 18.4186C12.2442 18.3314 12.1233 18.2812 12 18.2812Z" fill="white"/>
</svg>
