<svg height="750pt" preserveAspectRatio="xMidYMid meet" viewBox="0 0 900 750" width="900pt" xmlns="http://www.w3.org/2000/svg">
  <g fill="white" transform="matrix(.1 0 0 -.1 0 750)">
    <path d="m4424 6826c-56-18-126-68-167-119-19-23-289-467-599-987-311-520-1003-1678-1539-2575-535-896-981-1652-991-1680-23-66-23-159 1-211 24-54 82-100 144-115 40-9 765-10 3261-5 1766 4 3222 10 3236 13 76 18 148 80 170 149 15 46 8 128-17 182-10 22-722 1202-1583 2622-1076 1776-1579 2597-1611 2630-85 89-209 128-305 96zm875-2198c653-1077 1680-2813 1669-2823-22-20-2842-37-4068-25-734 7-803 9-792 23 5 7 341 593 747 1302 640 1120 1636 2815 1654 2815 3 0 359-582 790-1292z"/><path d="m4410 4992-85-3-380-930c-209-512-381-935-383-939-2-5 149 43 335 107 186 63 427 145 536 182l198 67-6-25c-11-47-267-996-269-998-1-1-41 29-90 68-49 38-90 69-91 69 0 0 20-128 45-285s48-284 51-282c4 1 91 101 194 222 104 121 194 227 202 236 14 17-29 9-212-37-22-5-27-4-22 7 3 8 137 295 297 639 323 692 333 713 322 707-17-10-1124-349-1127-345-3 3 425 817 761 1446l54 102-122-2c-68-1-161-4-208-6z"/>
  </g>
</svg>